<svg id="titles" xmlns="http://www.w3.org/2000/svg" viewBox="0 0 400 140"><defs><style>.cls-1{fill:#aad2f2;}.cls-2{fill:#772b77;}.cls-3{fill:#333;}.cls-4{fill:#666;}.cls-5{fill:#9273b6;}.cls-6{fill:#ae96c8;}</style></defs><title>asp-core-overview-1</title><path class="cls-1" d="M254.25,62.36a11.2,11.2,0,0,1,5.37,1.36,17.62,17.62,0,0,1,28.79-11.53,25.87,25.87,0,0,1,51.31,3.17,15,15,0,1,1,3.79,29.5H254.25a11.25,11.25,0,0,1,0-22.5Z"/><path class="cls-1" d="M62.25,98.36a11.2,11.2,0,0,1,5.37,1.36A17.62,17.62,0,0,1,96.41,88.19a25.87,25.87,0,0,1,51.31,3.17,15,15,0,1,1,3.79,29.5H62.25a11.25,11.25,0,1,1,0-22.5Z"/><path class="cls-2" d="M198.43,96.76s-14.54-5.2-22,25.66c29.77-8,24.39-23.39,24.39-23.39Z"/><polygon class="cls-3" points="218.29 94.94 203.36 79.87 196.87 86.33 201.55 91.04 191.06 92.98 205.15 107.17 207.14 96.67 211.82 101.38 218.29 94.94"/><path class="cls-4" d="M211.26,58.26s-16.12-9.63-23.72-1.1A145.9,145.9,0,0,0,175,73.42l2.82,2.4s9-9.84,16.35-10c4.41-.09,12.17,4.28,12.17,4.28Z"/><path class="cls-4" d="M241.78,87s9.59,16.31,1,23.88a145.71,145.71,0,0,1-16.31,12.5l-2.38-2.84s9.88-9,10.07-16.33C234.3,99.81,230,92,230,92Z"/><path class="cls-5" d="M278.49,20.21l.12-.12h-.11V20l-.12.12c-3,.4-39.68,5.63-56.17,22.05C205,59.3,202.09,78.54,202.09,78.54l17.66,17.79s19.23-2.85,36.42-20C272.65,59.93,278.07,23.19,278.49,20.21Z"/><path class="cls-6" d="M278.49,20.21l.12-.12h-.11V20l-.12.12c-2.07.28-20.52,2.9-37.09,10-7.22,3.1,24.24,33.69,27.44,26.08C275.6,40,278.21,22.24,278.49,20.21Z"/></svg>