<svg xmlns="http://www.w3.org/2000/svg" viewBox="0 0 400 140"><defs><style>.cls-1,.cls-12{fill:none;stroke-miterlimit:10;}.cls-1{stroke:#8090a8;stroke-width:4px;}.cls-2{fill:#5d5d5d;}.cls-3{fill:#171717;}.cls-4{fill:#2e2e2e;}.cls-5{fill:#6d6e70;}.cls-6{fill:#5d5f5e;}.cls-7{fill:#1772b8;}.cls-8{fill:#929090;}.cls-9{fill:#767778;}.cls-10{fill:#a86527;}.cls-11{fill:#048273;}.cls-12{stroke:#6d6e70;}.cls-13{fill:#fff;opacity:0.15;}</style></defs><title>asp-core-overview-6</title><g id="Shapes"><polygon class="cls-1" points="63.98 49.89 104.28 70.01 144.58 49.89 104.28 29.77 63.98 49.89"/><path class="cls-1" d="M80,58.72c-3.71,3.78-3.71,17.7-3.71,17.7l28,14,28-14s0-13.92-3.71-17.7"/><path class="cls-1" d="M70.73,96.9c0-3.87-2.85-7-6.37-7S58,93,58,96.9V109H70.73Z"/><line class="cls-1" x1="64.37" y1="89.9" x2="64.37" y2="50.43"/><polygon class="cls-2" points="288 124 222.52 124 226.35 120 284.16 120 288 124"/><path class="cls-3" d="M285.41,126H225.22c-2.78-.24-2.83-2.68-2.83-2H288C288,123.32,288.33,125.76,285.41,126Z"/><polygon class="cls-3" points="269.4 121 241.11 121 243.4 108 267.11 108 269.4 121"/><path class="cls-3" d="M331.46,21H178.54A3.54,3.54,0,0,0,175,24.54v81.92a3.54,3.54,0,0,0,3.54,3.54H331.46a3.54,3.54,0,0,0,3.54-3.54V24.54A3.54,3.54,0,0,0,331.46,21ZM329,104H180V26H329Z"/><rect class="cls-4" x="180" y="25" width="150" height="79"/><rect class="cls-5" x="181" y="25" width="29" height="2"/><rect class="cls-5" x="181" y="33" width="29" height="2"/><rect class="cls-6" x="272" y="27" width="2" height="1"/><rect class="cls-6" x="272" y="29" width="2" height="1"/><rect class="cls-6" x="272" y="31" width="2" height="1"/><rect class="cls-6" x="272" y="33" width="2" height="1"/><rect class="cls-6" x="272" y="35" width="2" height="1"/><rect class="cls-6" x="272" y="37" width="2" height="1"/><rect class="cls-6" x="272" y="40" width="2" height="1"/><rect class="cls-6" x="272" y="42" width="2" height="1"/><rect class="cls-6" x="272" y="44" width="2" height="1"/><rect class="cls-6" x="272" y="46" width="2" height="1"/><rect class="cls-6" x="272" y="48" width="2" height="1"/><rect class="cls-6" x="272" y="50" width="2" height="1"/><rect class="cls-6" x="272" y="52" width="2" height="1"/><rect class="cls-6" x="272" y="54" width="2" height="1"/><rect class="cls-6" x="272" y="56" width="2" height="1"/><rect class="cls-6" x="272" y="58" width="2" height="1"/><rect class="cls-6" x="272" y="60" width="2" height="1"/><rect class="cls-6" x="272" y="62" width="2" height="1"/><rect class="cls-6" x="272" y="65" width="2" height="1"/><rect class="cls-6" x="272" y="67" width="2" height="1"/><rect class="cls-6" x="272" y="69" width="2" height="1"/><rect class="cls-6" x="272" y="71" width="2" height="1"/><rect class="cls-6" x="272" y="73" width="2" height="1"/><rect class="cls-6" x="272" y="75" width="2" height="1"/><rect class="cls-6" x="272" y="77" width="2" height="1"/><rect class="cls-6" x="272" y="79" width="2" height="1"/><rect class="cls-7" x="274" y="27" width="2" height="1"/><rect class="cls-7" x="274" y="29" width="2" height="1"/><rect class="cls-7" x="274" y="31" width="2" height="1"/><rect class="cls-7" x="274" y="33" width="2" height="1"/><rect class="cls-6" x="277" y="27" width="21" height="1"/><rect class="cls-6" x="277" y="29" width="13" height="1"/><rect class="cls-6" x="277" y="31" width="18" height="1"/><rect class="cls-6" x="277" y="33" width="10" height="1"/><rect class="cls-7" x="215" y="27" width="2" height="1"/><rect class="cls-7" x="215" y="29" width="2" height="1"/><rect class="cls-7" x="215" y="31" width="2" height="1"/><rect class="cls-7" x="184" y="29" width="2" height="1"/><rect class="cls-7" x="184" y="31" width="2" height="1"/><rect class="cls-7" x="215" y="33" width="2" height="1"/><rect class="cls-6" x="218" y="27" width="21" height="1"/><rect class="cls-6" x="218" y="29" width="13" height="1"/><rect class="cls-6" x="218" y="31" width="18" height="1"/><rect class="cls-6" x="218" y="33" width="10" height="1"/><rect class="cls-8" x="274" y="37" width="20" height="1"/><rect class="cls-8" x="274" y="40" width="38" height="1"/><rect class="cls-8" x="274" y="42" width="26" height="1"/><rect class="cls-8" x="274" y="44" width="42" height="1"/><rect class="cls-8" x="274" y="46" width="8" height="1"/><rect class="cls-8" x="283" y="46" width="23" height="1"/><rect class="cls-8" x="307" y="46" width="3" height="1"/><rect class="cls-8" x="274" y="48" width="27" height="1"/><rect class="cls-8" x="274" y="50" width="46" height="1"/><rect class="cls-8" x="274" y="52" width="28" height="1"/><rect class="cls-6" x="274" y="54" width="25" height="1"/><rect class="cls-6" x="274" y="56" width="28" height="1"/><rect class="cls-6" x="274" y="58" width="31" height="1"/><rect class="cls-8" x="279" y="60" width="2" height="1"/><rect class="cls-8" x="279" y="62" width="2" height="1"/><rect class="cls-8" x="279" y="65" width="2" height="1"/><rect class="cls-8" x="283" y="60" width="12" height="1"/><rect class="cls-8" x="297" y="60" width="12" height="1"/><rect class="cls-8" x="284" y="62" width="9" height="1"/><rect class="cls-8" x="295" y="62" width="9" height="1"/><rect class="cls-8" x="282" y="65" width="3" height="1"/><rect class="cls-8" x="215" y="37" width="20" height="1"/><rect class="cls-9" x="236" y="37" width="14" height="1"/><rect class="cls-8" x="215" y="40" width="20" height="1"/><rect class="cls-8" x="215" y="42" width="8" height="1"/><rect class="cls-8" x="215" y="44" width="8" height="1"/><rect class="cls-8" x="215" y="46" width="8" height="1"/><rect class="cls-10" x="224" y="42" width="23" height="1"/><rect class="cls-10" x="224" y="44" width="41" height="1"/><rect class="cls-10" x="224" y="46" width="23" height="1"/><rect class="cls-7" x="248" y="46" width="3" height="1"/><rect class="cls-6" x="215" y="48" width="2" height="1"/><rect class="cls-11" x="215" y="50" width="23" height="1"/><rect class="cls-11" x="216" y="52" width="28" height="1"/><rect class="cls-6" x="216" y="54" width="25" height="1"/><rect class="cls-6" x="215" y="56" width="28" height="1"/><rect class="cls-6" x="216" y="58" width="31" height="1"/><rect class="cls-11" x="220" y="60" width="2" height="1"/><rect class="cls-11" x="220" y="62" width="2" height="1"/><rect class="cls-11" x="220" y="65" width="2" height="1"/><rect class="cls-11" x="225" y="60" width="9" height="1"/><rect class="cls-11" x="225" y="62" width="9" height="1"/><rect class="cls-11" x="223" y="65" width="3" height="1"/><rect class="cls-6" x="279" y="67" width="35" height="1"/><rect class="cls-6" x="282" y="69" width="26" height="1"/><rect class="cls-6" x="282" y="71" width="38" height="1"/><rect class="cls-6" x="282" y="73" width="26" height="1"/><rect class="cls-6" x="284" y="75" width="17" height="1"/><rect class="cls-6" x="282" y="77" width="2" height="1"/><rect class="cls-6" x="279" y="79" width="2" height="1"/><rect class="cls-6" x="220" y="67" width="35" height="1"/><rect class="cls-6" x="223" y="69" width="26" height="1"/><rect class="cls-6" x="223" y="71" width="38" height="1"/><rect class="cls-6" x="223" y="73" width="26" height="1"/><rect class="cls-6" x="225" y="75" width="17" height="1"/><rect class="cls-6" x="223" y="77" width="2" height="1"/><rect class="cls-6" x="215" y="81" width="2" height="1"/><rect class="cls-6" x="220" y="79" width="2" height="1"/><rect class="cls-6" x="218" y="81" width="2" height="1"/><rect class="cls-7" x="215" y="85" width="2" height="1"/><rect class="cls-6" x="218" y="85" width="16" height="1"/><rect class="cls-7" x="235" y="85" width="7" height="1"/><rect class="cls-7" x="218" y="87" width="2" height="1"/><rect class="cls-7" x="218" y="90" width="2" height="1"/><rect class="cls-6" x="221" y="87" width="19" height="1"/><rect class="cls-6" x="221" y="90" width="19" height="1"/><rect class="cls-6" x="212" y="27" width="2" height="1"/><rect class="cls-6" x="212" y="29" width="2" height="1"/><rect class="cls-6" x="212" y="31" width="2" height="1"/><rect class="cls-6" x="212" y="33" width="2" height="1"/><rect class="cls-6" x="212" y="35" width="2" height="1"/><rect class="cls-6" x="212" y="37" width="2" height="1"/><rect class="cls-6" x="212" y="39" width="2" height="1"/><rect class="cls-6" x="212" y="41" width="2" height="1"/><rect class="cls-6" x="212" y="43" width="2" height="1"/><rect class="cls-6" x="212" y="45" width="2" height="1"/><rect class="cls-6" x="212" y="47" width="2" height="1"/><rect class="cls-6" x="212" y="50" width="2" height="1"/><rect class="cls-6" x="212" y="52" width="2" height="1"/><rect class="cls-6" x="212" y="54" width="2" height="1"/><rect class="cls-6" x="212" y="56" width="2" height="1"/><rect class="cls-6" x="212" y="58" width="2" height="1"/><rect class="cls-6" x="212" y="60" width="2" height="1"/><rect class="cls-6" x="212" y="62" width="2" height="1"/><rect class="cls-6" x="212" y="64" width="2" height="1"/><rect class="cls-6" x="212" y="66" width="2" height="1"/><rect class="cls-6" x="212" y="68" width="2" height="1"/><rect class="cls-6" x="212" y="70" width="2" height="1"/><rect class="cls-6" x="212" y="72" width="2" height="1"/><rect class="cls-6" x="212" y="75" width="2" height="1"/><rect class="cls-6" x="212" y="77" width="2" height="1"/><rect class="cls-6" x="212" y="79" width="2" height="1"/><rect class="cls-6" x="212" y="81" width="2" height="1"/><rect class="cls-6" x="212" y="83" width="2" height="1"/><rect class="cls-6" x="212" y="85" width="2" height="1"/><rect class="cls-6" x="212" y="87" width="2" height="1"/><rect class="cls-6" x="212" y="89" width="2" height="1"/><rect class="cls-6" x="187" y="29" width="13" height="1"/><rect class="cls-6" x="187" y="31" width="18" height="1"/><rect class="cls-6" x="181" y="29" width="2" height="1"/><rect class="cls-6" x="181" y="31" width="2" height="1"/><rect class="cls-6" x="181" y="37" width="2" height="1"/><rect class="cls-6" x="181" y="39" width="2" height="1"/><rect class="cls-6" x="181" y="41" width="2" height="1"/><rect class="cls-6" x="184" y="37" width="10" height="1"/><rect class="cls-6" x="184" y="39" width="10" height="1"/><rect class="cls-6" x="184" y="41" width="10" height="1"/><line class="cls-12" x1="269.5" y1="26" x2="269.5" y2="104"/><polygon class="cls-13" points="330 70.38 330 25 284.62 25 330 70.38"/></g></svg>