<svg xmlns="http://www.w3.org/2000/svg" viewBox="0 0 400 140"><defs><style>.cls-1{isolation:isolate;}.cls-13,.cls-2,.cls-3,.cls-9{fill:none;}.cls-2,.cls-3{stroke:#aab5c5;}.cls-12,.cls-2,.cls-3{stroke-miterlimit:10;}.cls-12,.cls-13,.cls-2{stroke-width:2px;}.cls-3{stroke-width:4px;}.cls-4{fill:#998aad;}.cls-5{fill:#aab5c5;}.cls-6{fill:#56616d;}.cls-7{fill:#333;}.cls-8{fill:#474f59;}.cls-10{fill:#55a5e4;}.cls-11{fill:#9273b6;}.cls-12{fill:#fff;stroke:#999;}.cls-13{stroke:gray;stroke-linejoin:bevel;}.cls-14{fill:#221f1f;}.cls-15{fill:#5e615f;}.cls-16{fill:#ae96c8;}.cls-17{fill:#d1d3d4;opacity:0.5;mix-blend-mode:screen;}.cls-18{fill:#2e2e2e;}.cls-19{fill:#5d5f5e;}.cls-20{fill:#cdc0ff;}.cls-21{fill:#757575;}</style></defs><title>asp-core-overview-5</title><g class="cls-1"><g id="Shapes"><path class="cls-2" d="M143,119h62a20,20,0,0,0,0-40H171.61a20,20,0,0,1,0-40H328"/><circle class="cls-3" cx="54" cy="55" r="40"/><ellipse class="cls-3" cx="54.5" cy="55" rx="17.5" ry="40"/><path class="cls-3" d="M88.73,34C82.54,35.77,69.23,37,53.82,37c-15.57,0-29-1.23-35.09-3"/><path class="cls-3" d="M18.73,75.4c5.8-1.76,19.39-3,35.22-3,15.44,0,28.75,1.18,34.78,2.87"/><line class="cls-3" x1="14" y1="55" x2="95" y2="55"/><path class="cls-4" d="M171.08,71.6a.87.87,0,0,0,.81.6l1.82-.06a.93.93,0,0,0,.74-.95l.1-2.23a1.29,1.29,0,0,1,.9-1.36c.29-.27.72-.39,1-.65a1.56,1.56,0,0,1,1.53.21l2,1.35a1.06,1.06,0,0,0,1-.1l1.33-1.48a1,1,0,0,0-.23-1.13l-1.6-1.75a1.14,1.14,0,0,1-.22-1.41l-.13-.15a1.51,1.51,0,0,0,.46-1c0-.56.33-1.1,1.31-1.2L184,60a1.1,1.1,0,0,0,.74-.94l-.19-2a.69.69,0,0,0-.81-.59l-2.23-.1a1.33,1.33,0,0,1-1.36-.9c-.27-.29-.39-.72-.65-1a2.23,2.23,0,0,1,.08-1.67L181,51.09a1,1,0,0,0-.08-1.26l-1.49-1a.85.85,0,0,0-1.12-.05l-1.62,1.74a1.42,1.42,0,0,1-1.55.35,4.32,4.32,0,0,0-1.1-.33l-.13-.15a1.47,1.47,0,0,1-1.06-1.17l-.31-2.39a.87.87,0,0,0-.81-.59l-2,.19a.69.69,0,0,0-.6.81l-.25,2.36c0,.84-.33,1.1-.75,1.22s-.72.39-1,.65a1.47,1.47,0,0,1-1.67-.08l-1.89-1.48a1.09,1.09,0,0,0-1.13.23l-1.33,1.48a1.23,1.23,0,0,0,.23,1.13l1.6,1.75c.53.58.65,1,.21,1.41,0,.28-.17.69-.2,1.25s-.32.82-1.3.92l-2.26.46a.87.87,0,0,0-.6.81l.19,2a.89.89,0,0,0,.67.73L162,62c.84,0,1.1.33,1.22.75a12.45,12.45,0,0,1,.64,1.29,1.25,1.25,0,0,1,.07,1.54l-1.48,1.89a1.08,1.08,0,0,0,.23,1.13L164,69.74a.85.85,0,0,0,1.12.05l1.62-1.74a1.42,1.42,0,0,1,1.55-.35l1.24.48c.56,0,.82.32,1.06,1.17l.45,2.26m5.48-12.75A4.91,4.91,0,0,1,172.13,64,4.56,4.56,0,0,1,167,59.54a4.69,4.69,0,0,1,4.28-5,4.75,4.75,0,0,1,5.25,4.29"/><path class="cls-5" d="M213.56,91.38a.52.52,0,0,0,0-.69l-.92-1a.62.62,0,0,0-.69,0l-1.57,1-1.07-.74.51-1.92a.47.47,0,0,0-.25-.57l-1.15-.54a.44.44,0,0,0-.63.18l-1.12,1.68a4,4,0,0,0-1.23-.33l-.19-1.95a.47.47,0,0,0-.46-.51h-1.32c-.2-.08-.42.12-.5.32l-.44,2a4.07,4.07,0,0,0-1.26.22l-1-1.77a.7.7,0,0,0-.61-.24l-1.27.5a.47.47,0,0,0-.3.54l.4,1.89c-.36.19-.72.52-1.07.71l-1.54-1.25a.45.45,0,0,0-.63,0l-.94.86a.45.45,0,0,0-.1.62l1.1,1.64a5.64,5.64,0,0,0-.82,1.14l-1.91-.64a.61.61,0,0,0-.64.32l-.54,1.15a.6.6,0,0,0,.24.7l1.62,1c-.16.41-.18.82-.33,1.23l-1.95.19a.6.6,0,0,0-.44.53L190.54,99a.6.6,0,0,0,.39.57l2,.3a8.17,8.17,0,0,0,.21,1.4l-1.78,1a.44.44,0,0,0-.24.61l.43,1.2a.65.65,0,0,0,.61.37l2-.47.57,1.06-1.25,1.54a.65.65,0,0,0,0,.63l.92,1a.53.53,0,0,0,.62.1l1.65-1.1,1.07.74-.5,1.92a.47.47,0,0,0,.25.57l1.22.61a.59.59,0,0,0,.63-.18l1-1.61c.41,0,.82.18,1.24.19l.11,2a.6.6,0,0,0,.53.44l1.31.13a.84.84,0,0,0,.51-.46l.37-1.92c.49,0,.91-.17,1.4-.21l.89,1.7a.48.48,0,0,0,.61.24l1.2-.43a.56.56,0,0,0,.37-.61l-.4-1.89a5,5,0,0,0,1.07-.71l1.54,1.25a.46.46,0,0,0,.69,0l.94-.86a.46.46,0,0,0,0-.69l-1.1-1.64a3.45,3.45,0,0,0,.82-1.14l1.91.64A.47.47,0,0,0,215,105l.61-1.22a.7.7,0,0,0-.18-.63l-1.68-1.11a3.53,3.53,0,0,0,.26-1.17l2-.26c.21-.06.43-.26.43-.4l.06-1.38a.47.47,0,0,0-.46-.51L214.16,98a7.54,7.54,0,0,0-.15-1.32l1.64-1A.5.5,0,0,0,216,95l-.43-1.2a.44.44,0,0,0-.61-.24l-2,.33-.58-1.07,1.18-1.47M205,97.58a2,2,0,1,1-3,2.71,2,2,0,0,1,.06-2.84,2.07,2.07,0,0,1,2.91.13"/><polygon class="cls-6" points="128 120 79 120 79 83 80 83 80 80 79 80 79 75 80 75 80 72 79 72 79 68 80 68 80 65 79 65 79 60 80 60 80 57 79 57 79 52 80 52 80 49 79 49 79 39 128 39 128 120"/><rect x="110" y="57" width="18" height="3"/><rect x="110" y="65" width="18" height="3"/><rect x="110" y="49" width="18" height="3"/><rect class="cls-7" x="80" y="57" width="22" height="3"/><rect class="cls-7" x="80" y="65" width="22" height="3"/><rect class="cls-7" x="80" y="49" width="22" height="3"/><polygon class="cls-8" points="110 39 110 49 125 49 125 52 110 52 110 57 125 57 125 60 110 60 110 65 125 65 125 68 110 68 110 120 128 120 128 39 110 39"/><polygon class="cls-9" points="113 49 80 49 80 52 113 52 113 49 113 49"/><polyline class="cls-9" points="113 49 80 49 80 52 113 52 113 49"/><polygon class="cls-10" points="110 52 102 52 102 49 110 49 110 52 110 52"/><polygon class="cls-10" points="110 60 102 60 102 57 110 57 110 60 110 60"/><polygon class="cls-10" points="110 68 102 68 102 65 110 65 110 68 110 68"/><path class="cls-11" d="M155.36,109.55l-4.78-.53a.86.86,0,0,1-.75-.68,14.14,14.14,0,0,0-1.28-3.39.93.93,0,0,1,.12-1l3-3.7A.92.92,0,0,0,151.6,99l-2.49-2.49a.92.92,0,0,0-1.23-.07l-3.59,2.89a.91.91,0,0,1-1,.08A14.23,14.23,0,0,0,140.08,98a.92.92,0,0,1-.64-.78l-.52-4.6c-.05-.47-.45-.63-.92-.63h-3.53c-.47,0-.87.17-.92.63l-.51,4.56a.88.88,0,0,1-.7.75,14.15,14.15,0,0,0-3.54,1.44.91.91,0,0,1-1-.08l-3.54-2.85a.92.92,0,0,0-1.23.06L120.51,99a.92.92,0,0,0-.07,1.23l2.9,3.61a.91.91,0,0,1,.08,1,14.22,14.22,0,0,0-1.35,3.49.93.93,0,0,1-.81.69l-4.58.51a.82.82,0,0,0-.69.92V114a.82.82,0,0,0,.69.92l4.93.54a.88.88,0,0,1,.75.63,14.16,14.16,0,0,0,1.12,2.63.91.91,0,0,1-.1,1l-2.95,3.66a.92.92,0,0,0,.06,1.23l2.49,2.49a.92.92,0,0,0,1.23.07l3.63-2.92a.94.94,0,0,1,1.05-.07,14.23,14.23,0,0,0,3.05,1.29.93.93,0,0,1,.68.79l.53,4.91a.92.92,0,0,0,.92.82h3.53a.92.92,0,0,0,.92-.82l.53-4.86a.91.91,0,0,1,.67-.77,14.21,14.21,0,0,0,3.39-1.42.91.91,0,0,1,1,.09l3.7,3a.92.92,0,0,0,1.23-.07l2.49-2.49a.92.92,0,0,0,.07-1.23l-3-3.77a.93.93,0,0,1-.08-1,14.22,14.22,0,0,0,1.05-2.46.93.93,0,0,1,.78-.65l5-.56c.47-.05.64-.45.64-.92v-3.53C156,110,155.83,109.6,155.36,109.55ZM136,119.15a7.34,7.34,0,1,1,7.34-7.34A7.34,7.34,0,0,1,136,119.15Z"/><polyline class="cls-12" points="241 27 236 27 236 69 267 69 267 64"/><polyline class="cls-12" points="246 24 241 24 241 64 270 64 270 59"/><polygon class="cls-12" points="273 59 246 59 246 21 262 21 273 32 273 59"/><polygon class="cls-13" points="262 21 273 32 262 32 262 21"/><path class="cls-14" d="M380,71V29.63A1.63,1.63,0,0,0,378.37,28H320.63A1.63,1.63,0,0,0,319,29.63V71Z"/><path class="cls-14" d="M311.09,71c0-.45.38,1.87,2.73,2h70.45c1.82-.13,2.73-2.45,2.73-2V70H311Z"/><rect class="cls-15" x="349" y="29" width="1" height="1"/><rect class="cls-15" x="348" y="66" width="2" height="2"/><rect class="cls-16" x="322" y="31" width="55" height="34"/><polygon class="cls-17" points="377 31 356.12 31 377 50.54 377 31"/><rect class="cls-18" x="307" y="53" width="53" height="36" rx="2.16" ry="2.16"/><rect class="cls-4" x="310" y="56" width="47" height="30"/><polygon class="cls-19" points="358 71.58 359 71.74 359 70.49 358 70.64 358 71.58"/><polygon class="cls-17" points="357 75.33 357 56 335.88 56 357 75.33"/><path class="cls-18" d="M351.35,104.43a31.36,31.36,0,0,1-6.62.51,36.15,36.15,0,0,1-7.08-.51c-1-.25-1.65-.84-1.65-1.78V73.12c0-.95.63-1.52,1.69-1.68a56.41,56.41,0,0,1,7-.44,41.19,41.19,0,0,1,6.62.43c1.14.18,1.69.77,1.69,1.72v29.5C353,103.59,352.51,104.17,351.35,104.43Z"/><rect class="cls-20" x="337" y="75" width="15" height="26"/><circle class="cls-21" cx="344.23" cy="72.83" r="0.33"/><circle class="cls-21" cx="339.03" cy="73.09" r="0.26"/><polygon class="cls-17" points="352 87.98 352 75 337.83 75 352 87.98"/></g></g></svg>